# Blender v2.76 (sub 0) OBJ File: 'sobieski.blend'
# www.blender.org
mtllib skurwoala.mtl
o Cube
v 1.000000 -4.738217 -0.023923
v 0.624199 2.272456 0.438487
v 0.653107 1.596463 0.403822
v 0.436299 1.238585 0.663809
v 0.277306 0.814433 0.854466
v 0.212264 -0.007361 0.932462
v 0.197810 -4.434448 0.949794
v 0.306215 -4.686828 0.819801
v 0.999999 3.982318 -0.012156
v 1.000000 -4.690727 -0.022217
v 0.182081 -4.817369 0.962623
v 0.054281 -4.434448 1.114929
v 0.071320 -0.007361 1.094621
v 0.148000 0.814433 1.003238
v 0.335440 1.238585 0.779856
v 0.591040 1.596463 0.475244
v 0.556960 2.272456 0.515859
v 0.616600 3.001467 0.444783
v 0.625120 3.982318 0.434629
v -0.253125 -4.817369 0.208825
v -0.448926 -4.434448 0.243349
v -0.422819 -0.007361 0.238746
v -0.305339 0.814433 0.218031
v -0.018165 1.238585 0.167395
v 0.373437 1.596463 0.098345
v 0.321223 2.272456 0.107551
v 0.412597 3.001467 0.091440
v 0.425651 3.982318 0.089138
v -0.101980 -4.817369 -0.648363
v -0.274164 -4.434448 -0.747774
v -0.251206 -0.007361 -0.734519
v -0.147896 0.814433 -0.674873
v 0.104641 1.238585 -0.529071
v 0.449010 1.596463 -0.330249
v 0.403094 2.272456 -0.356759
v 0.483446 3.001467 -0.310367
v 0.494925 3.982318 -0.303740
v 0.564793 -4.817369 -1.207852
v 0.496793 -4.434448 -1.394684
v 0.505860 -0.007361 -1.369773
v 0.546660 0.814433 -1.257674
v 0.646395 1.238585 -0.983656
v 0.782396 1.596463 -0.609994
v 0.764263 2.272456 -0.659816
v 0.795997 3.001467 -0.572628
v 0.800530 3.982318 -0.560172
v 1.435204 -4.817369 -1.207852
v 1.503206 -4.434448 -1.394684
v 1.494139 -0.007361 -1.369773
v 1.453339 0.814433 -1.257674
v 1.353604 1.238585 -0.983656
v 1.217602 1.596463 -0.609994
v 1.235736 2.272456 -0.659816
v 1.204002 3.001467 -0.572628
v 1.199468 3.982318 -0.560173
v 2.101978 -4.817369 -0.648363
v 2.274163 -4.434448 -0.747774
v 2.251205 -0.007361 -0.734519
v 2.147895 0.814433 -0.674873
v 1.895358 1.238585 -0.529071
v 1.550989 1.596463 -0.330249
v 1.596905 2.272456 -0.356759
v 1.516552 3.001467 -0.310367
v 1.505073 3.982318 -0.303740
v 2.253124 -4.817369 0.208824
v 2.448925 -4.434448 0.243350
v 2.422818 -0.007361 0.238746
v 2.305338 0.814433 0.218031
v 2.018163 1.238585 0.167395
v 1.626562 1.596463 0.098345
v 1.678775 2.272456 0.107551
v 1.587402 3.001467 0.091440
v 1.574348 3.982318 0.089138
v 1.817918 -4.817369 0.962622
v 1.945718 -4.434448 1.114929
v 1.928678 -0.007361 1.094622
v 1.851998 0.814433 1.003238
v 1.664559 1.238585 0.779856
v 1.408959 1.596463 0.475244
v 1.443039 2.272456 0.515859
v 1.383399 3.001467 0.444783
v 1.374879 3.982318 0.434629
v 1.000000 -4.817369 1.260320
v 0.999999 -4.434448 1.459142
v 0.999999 -0.007361 1.432633
v 0.999999 0.814433 1.313340
v 0.999999 1.238585 1.021736
v 0.999999 1.596463 0.624093
v 0.999999 2.272456 0.677112
v 0.999999 3.001467 0.584329
v 0.999999 3.982318 0.571074
v 0.674787 3.001467 0.377824
v 0.682014 3.982318 0.369157
v -0.062941 -4.686828 0.176434
v -0.229026 -4.434448 0.205900
v -0.206882 -0.007361 0.201971
v -0.107231 0.814433 0.184291
v 0.136360 1.238585 0.141073
v 0.468529 1.596463 0.082139
v 0.424240 2.272456 0.089997
v 0.501746 3.001467 0.076245
v 0.512818 3.982318 0.074281
v 0.065265 -4.686828 -0.555177
v -0.080788 -4.434448 -0.640024
v -0.061314 -0.007361 -0.628711
v 0.026317 0.814433 -0.577803
v 0.240527 1.238585 -0.453361
v 0.532632 1.596463 -0.283667
v 0.493685 2.272456 -0.306293
v 0.561842 3.001467 -0.266697
v 0.571579 3.982318 -0.261041
v 0.630844 -4.686828 -1.032701
v 0.573163 -4.434448 -1.192162
v 0.580854 -0.007361 -1.170901
v 0.615462 0.814433 -1.075225
v 0.700060 1.238585 -0.841350
v 0.815422 1.596463 -0.522429
v 0.800040 2.272456 -0.564952
v 0.826958 3.001467 -0.490537
v 0.830803 3.982318 -0.479906
v 1.369154 -4.686828 -1.032702
v 1.426836 -4.434448 -1.192162
v 1.419145 -0.007361 -1.170901
v 1.384537 0.814433 -1.075225
v 1.299938 1.238585 -0.841350
v 1.184577 1.596463 -0.522429
v 1.199959 2.272456 -0.564952
v 1.173041 3.001467 -0.490537
v 1.169196 3.982318 -0.479906
v 1.934733 -4.686828 -0.555177
v 2.080786 -4.434448 -0.640024
v 2.061313 -0.007361 -0.628711
v 1.973681 0.814433 -0.577803
v 1.759471 1.238585 -0.453361
v 1.467367 1.596463 -0.283667
v 1.506314 2.272456 -0.306292
v 1.438156 3.001467 -0.266697
v 1.428419 3.982318 -0.261041
v 2.062940 -4.686828 0.176433
v 2.229025 -4.434448 0.205901
v 2.206880 -0.007361 0.201972
v 2.107230 0.814433 0.184291
v 1.863639 1.238585 0.141073
v 1.531470 1.596463 0.082139
v 1.575759 2.272456 0.089997
v 1.498253 3.001467 0.076245
v 1.487181 3.982318 0.074281
v 1.693785 -4.686828 0.819800
v 1.802188 -4.434448 0.949794
v 1.787735 -0.007361 0.932462
v 1.722692 0.814433 0.854466
v 1.563700 1.238585 0.663809
v 1.346892 1.596463 0.403822
v 1.375800 2.272456 0.438487
v 1.325211 3.001467 0.377824
v 1.317984 3.982318 0.369157
v 1.000000 -4.686828 1.073886
v 0.999999 -4.434448 1.243580
v 0.999999 -0.007361 1.220955
v 0.999999 0.814433 1.119138
v 0.999999 1.238585 0.870254
v 0.999999 1.596463 0.530865
v 0.999999 2.272456 0.576117
v 0.999999 3.001467 0.496926
v 0.999999 3.982318 0.485613
vt 0.269471 0.744985
vt 0.269536 0.744808
vt 0.269402 0.744801
vt 0.614527 0.177579
vt 0.568984 0.149417
vt 0.548891 0.165887
vt 0.610711 0.201676
vt 0.241846 0.698243
vt 0.253476 0.719759
vt 0.272405 0.715527
vt 0.274300 0.692043
vt 0.211352 0.627972
vt 0.230066 0.674823
vt 0.275153 0.667416
vt 0.275269 0.621759
vt 0.231451 0.318378
vt 0.218272 0.345742
vt 0.278374 0.365109
vt 0.279272 0.340626
vt 0.333307 0.252550
vt 0.337012 0.008314
vt 0.445670 0.009232
vt 0.444434 0.253489
vt 0.265056 0.737687
vt 0.270692 0.736569
vt 0.268328 0.742786
vt 0.270003 0.742566
vt 0.554332 0.009232
vt 0.555566 0.253489
vt 0.275829 0.739206
vt 0.290730 0.722827
vt 0.305998 0.703059
vt 0.319697 0.679986
vt 0.338841 0.632225
vt 0.339119 0.355818
vt 0.271436 0.743461
vt 0.326876 0.329957
vt 0.329699 0.732960
vt 0.359990 0.718318
vt 0.415266 0.669682
vt 0.412973 0.313092
vt 0.271969 0.745081
vt 0.278218 0.744607
vt 0.302089 0.740908
vt 0.378813 0.284674
vt 0.662989 0.008314
vt 0.666692 0.252550
vt 0.271325 0.746678
vt 0.276520 0.750443
vt 0.298834 0.764354
vt 0.329225 0.778977
vt 0.372373 0.792260
vt 0.525148 0.803542
vt 0.525148 0.165273
vt 0.424023 0.176154
vt 0.771632 0.006478
vt 0.777805 0.250673
vt 0.309635 0.860418
vt 0.385496 0.999908
vt 0.378259 0.000092
vt 0.347802 0.080334
vt 0.880252 0.003724
vt 0.888894 0.247856
vt 0.271298 0.753794
vt 0.278783 0.780090
vt 0.290119 0.814514
vt 0.269795 0.747480
vt 0.988840 0.000053
vt 0.999950 0.244101
vt 0.265146 0.752836
vt 0.253106 0.776860
vt 0.235791 0.808423
vt 0.212762 0.852652
vt 0.268112 0.747101
vt 0.141550 0.998171
vt 0.179986 0.018737
vt 0.222843 0.086682
vt 0.267080 0.745734
vt 0.261216 0.748122
vt 0.237911 0.757346
vt 0.206256 0.766216
vt 0.162987 0.776102
vt 0.000092 0.792120
vt 0.070320 0.179890
vt 0.152376 0.183514
vt 0.000050 0.244099
vt 0.011161 0.000050
vt 0.119749 0.003723
vt 0.111106 0.247854
vt 0.267171 0.744030
vt 0.261294 0.742140
vt 0.239684 0.734852
vt 0.214716 0.722843
vt 0.186847 0.706642
vt 0.132825 0.659811
vt 0.149653 0.306340
vt 0.177783 0.278990
vt 0.228369 0.006477
vt 0.222195 0.250671
vt 0.269643 0.744889
vt 0.550179 0.098595
vt 0.525333 0.097694
vt 0.567892 0.048605
vt 0.550067 0.032383
vt 0.269673 0.745022
vt 0.612704 0.022842
vt 0.609092 0.000092
vt 0.269599 0.745137
vt 0.663634 0.033854
vt 0.675630 0.012677
vt 0.269470 0.745177
vt 0.269349 0.745125
vt 0.696943 0.076262
vt 0.721121 0.067518
vt 0.698495 0.129649
vt 0.721121 0.138498
vt 0.269277 0.745014
vt 0.665814 0.169788
vt 0.677270 0.189815
vt 0.269295 0.744882
vt 0.269673 0.744871
vt 0.269244 0.745021
vt 0.269325 0.745154
vt 0.269621 0.745164
vt 1.027732 0.007672
vt 0.954202 0.999323
vt 0.626791 0.998876
vt 0.694314 0.007217
vt 0.299377 0.998876
vt 0.360892 0.007217
vt -0.028035 0.999322
vt 0.027473 0.007672
vt 0.000000 0.000000
vt 0.000000 1.000000
vt 1.000000 1.000000
vt 1.000000 0.000000
vn 0.644300 -0.020200 -0.764400
vn 0.984700 -0.020200 -0.172800
vn 0.983200 -0.060100 -0.172500
vn 0.643400 -0.060300 -0.763100
vn 0.613100 -0.307800 -0.727500
vn 0.937300 -0.307000 -0.164500
vn 0.797300 -0.587100 -0.139900
vn 0.521300 -0.588300 -0.618100
vn 0.599100 -0.370100 -0.709900
vn 0.915400 -0.369100 -0.160500
vn 0.605200 0.788900 -0.106200
vn 0.395600 0.789500 -0.469200
vn 0.351000 0.839000 -0.415600
vn 0.536100 0.838900 -0.093900
vn 0.947800 0.271800 -0.166400
vn 0.620000 0.272400 -0.735800
vn 0.643200 -0.063200 -0.763100
vn 0.983000 -0.063000 -0.172500
vn -0.490100 0.646900 0.584100
vn -0.586600 0.408700 0.699100
vn -0.898800 0.408700 0.158500
vn -0.750900 0.646900 0.132400
vn -0.641000 0.073900 0.763900
vn -0.602400 0.348800 0.717900
vn -0.922900 0.348800 0.162700
vn -0.982100 0.073900 0.173200
vn -0.381500 -0.804800 0.454700
vn -0.626600 -0.223200 0.746700
vn -0.960000 -0.223200 0.169300
vn -0.584500 -0.804800 0.103100
vn -0.641200 0.070900 0.764100
vn -0.492400 0.642700 0.586900
vn -0.754500 0.642700 0.133000
vn -0.982300 0.070900 0.173200
vn -0.642600 0.023600 0.765800
vn -0.984500 0.023600 0.173600
vn -0.663500 0.642700 -0.383100
vn -0.863800 0.070900 -0.498700
vn -0.865800 0.023600 -0.499800
vn -0.790400 0.408700 -0.456300
vn -0.660400 0.646900 -0.381200
vn -0.811600 0.348800 -0.468600
vn -0.863600 0.073900 -0.498600
vn -0.844200 -0.223200 -0.487400
vn -0.514000 -0.804800 -0.296800
vn -0.260800 0.646900 -0.716500
vn -0.320500 0.348800 -0.880700
vn -0.341100 0.073900 -0.937100
vn -0.333400 -0.223200 -0.916000
vn -0.341100 0.070900 -0.937300
vn -0.341900 0.023600 -0.939400
vn -0.312100 0.408700 -0.857600
vn -0.203000 -0.804800 -0.557800
vn -0.262000 0.642700 -0.719900
vn 0.341100 0.070900 -0.937300
vn 0.341900 0.023600 -0.939400
vn 0.312100 0.408700 -0.857600
vn 0.260800 0.646900 -0.716500
vn 0.320500 0.348800 -0.880700
vn 0.341100 0.073900 -0.937100
vn 0.333400 -0.223200 -0.916000
vn 0.203000 -0.804800 -0.557800
vn 0.262000 0.642700 -0.719900
vn 0.811600 0.348800 -0.468600
vn 0.863600 0.073900 -0.498600
vn 0.844200 -0.223200 -0.487400
vn 0.514000 -0.804800 -0.296800
vn 0.663500 0.642700 -0.383100
vn 0.863800 0.070900 -0.498700
vn 0.865800 0.023600 -0.499800
vn 0.790400 0.408700 -0.456300
vn 0.660400 0.646900 -0.381200
vn 0.754500 0.642700 0.133000
vn 0.982300 0.070900 0.173200
vn 0.984500 0.023600 0.173600
vn 0.898800 0.408700 0.158500
vn 0.750900 0.646900 0.132400
vn 0.922900 0.348800 0.162700
vn 0.982100 0.073900 0.173200
vn 0.960000 -0.223200 0.169300
vn 0.584500 -0.804800 0.103100
vn 0.641200 0.070900 0.764100
vn 0.642600 0.023600 0.765800
vn 0.586600 0.408700 0.699100
vn 0.490100 0.646900 0.584100
vn 0.602400 0.348800 0.717900
vn 0.641000 0.073900 0.763900
vn 0.626600 -0.223200 0.746700
vn 0.381500 -0.804800 0.454700
vn 0.492400 0.642700 0.586900
vn 0.000000 0.070900 0.997500
vn 0.000000 0.023600 0.999700
vn 0.000000 0.408700 0.912600
vn 0.000000 0.646900 0.762500
vn 0.000000 0.348800 0.937200
vn 0.000000 0.073900 0.997300
vn 0.000000 -0.223200 0.974800
vn 0.000000 -0.804800 0.593600
vn 0.000000 0.642700 0.766100
vn 0.865500 -0.060200 0.497300
vn 0.532500 0.789100 0.306000
vn 0.805900 -0.369500 0.462600
vn 0.866800 -0.020200 0.498200
vn 0.825000 -0.307400 0.474200
vn 0.701600 -0.587600 0.403000
vn 0.865300 -0.063100 0.497300
vn 0.472000 0.838900 0.270800
vn 0.834200 0.272000 0.479600
vn 0.326600 -0.308200 0.893500
vn 0.277600 -0.589000 0.758900
vn 0.343300 -0.020300 0.939000
vn 0.342800 -0.060400 0.937400
vn 0.319300 -0.370700 0.872100
vn 0.342700 -0.063300 0.937300
vn 0.187000 0.839200 0.510700
vn 0.330300 0.272700 0.903600
vn 0.210600 0.789800 0.576000
vn -0.343300 -0.020300 0.939000
vn -0.342800 -0.060400 0.937400
vn -0.277600 -0.589000 0.758900
vn -0.319300 -0.370700 0.872100
vn -0.342700 -0.063300 0.937300
vn -0.326600 -0.308200 0.893500
vn -0.187000 0.839200 0.510700
vn -0.330300 0.272700 0.903600
vn -0.210600 0.789800 0.576000
vn -0.865300 -0.063100 0.497300
vn -0.825000 -0.307400 0.474200
vn -0.472000 0.838900 0.270800
vn -0.834200 0.272000 0.479600
vn -0.865500 -0.060200 0.497300
vn -0.532500 0.789100 0.306000
vn -0.805900 -0.369500 0.462600
vn -0.866800 -0.020200 0.498200
vn -0.701600 -0.587600 0.403000
vn -0.983200 -0.060100 -0.172500
vn -0.605200 0.788900 -0.106200
vn -0.915400 -0.369100 -0.160500
vn -0.984700 -0.020200 -0.172800
vn -0.937300 -0.307000 -0.164500
vn -0.797300 -0.587100 -0.139900
vn -0.983000 -0.063000 -0.172500
vn -0.536100 0.838900 -0.093900
vn -0.947800 0.271800 -0.166400
vn -0.644300 -0.020200 -0.764400
vn -0.643400 -0.060300 -0.763100
vn -0.521300 -0.588300 -0.618100
vn -0.599100 -0.370100 -0.709900
vn -0.643200 -0.063200 -0.763100
vn -0.613100 -0.307800 -0.727500
vn -0.351000 0.839000 -0.415600
vn -0.620000 0.272400 -0.735800
vn -0.395600 0.789500 -0.469200
vn 0.000000 -0.020300 -0.999800
vn 0.000000 -0.060500 -0.998200
vn 0.000000 -0.589200 -0.807900
vn 0.000000 -0.370900 -0.928600
vn 0.000000 -0.063300 -0.998000
vn 0.000000 -0.308400 -0.951200
vn 0.000000 0.839200 -0.543800
vn 0.000000 0.272800 -0.962100
vn 0.000000 0.789900 -0.613200
usemtl Material
s 1
f 2/1/1 100/1/2 101/1/3 92/1/4
f 5/1/5 97/1/6 98/1/7 4/1/8
f 3/1/9 99/1/10 100/1/2 2/1/1
f 92/1/4 101/1/3 102/2/11 93/3/12
f 8/4/13 94/5/14 95/6/15 7/7/16
f 6/1/17 96/1/18 97/1/6 5/1/5
f 4/1/8 98/1/7 99/1/10 3/1/9
f 15/8/19 16/9/20 25/10/21 24/11/22
f 13/12/23 14/13/24 23/14/25 22/15/26
f 11/16/27 12/17/28 21/18/29 20/19/30
f 18/20/31 19/21/32 28/22/33 27/23/34
f 16/9/20 17/24/35 26/25/36 25/10/21
f 14/13/24 15/8/19 24/11/22 23/14/25
f 12/17/28 13/12/23 22/15/26 21/18/29
f 17/24/35 18/26/31 27/27/34 26/25/36
f 27/23/34 28/22/33 37/28/37 36/29/38
f 25/10/21 26/25/36 35/30/39 34/31/40
f 23/14/25 24/11/22 33/32/41 32/33/42
f 21/18/29 22/15/26 31/34/43 30/35/44
f 26/25/36 27/27/34 36/36/38 35/30/39
f 24/11/22 25/10/21 34/31/40 33/32/41
f 22/15/26 23/14/25 32/33/42 31/34/43
f 20/19/30 21/18/29 30/35/44 29/37/45
f 32/33/42 33/32/41 42/38/46 41/39/47
f 30/35/44 31/34/43 40/40/48 39/41/49
f 35/30/39 36/36/38 45/42/50 44/43/51
f 33/32/41 34/31/40 43/44/52 42/38/46
f 31/34/43 32/33/42 41/39/47 40/40/48
f 29/37/45 30/35/44 39/41/49 38/45/53
f 36/29/38 37/28/37 46/46/54 45/47/50
f 34/31/40 35/30/39 44/43/51 43/44/52
f 44/43/51 45/42/50 54/48/55 53/49/56
f 42/38/46 43/44/52 52/50/57 51/51/58
f 40/40/48 41/39/47 50/52/59 49/53/60
f 38/45/53 39/41/49 48/54/61 47/55/62
f 45/47/50 46/46/54 55/56/63 54/57/55
f 43/44/52 44/43/51 53/49/56 52/50/57
f 41/39/47 42/38/46 51/51/58 50/52/59
f 39/41/49 40/40/48 49/53/60 48/54/61
f 49/53/60 50/52/59 59/58/64 58/59/65
f 47/55/62 48/54/61 57/60/66 56/61/67
f 54/57/55 55/56/63 64/62/68 63/63/69
f 52/50/57 53/49/56 62/64/70 61/65/71
f 50/52/59 51/51/58 60/66/72 59/58/64
f 53/49/56 54/48/55 63/67/69 62/64/70
f 51/51/58 52/50/57 61/65/71 60/66/72
f 63/63/69 64/62/68 73/68/73 72/69/74
f 61/65/71 62/64/70 71/70/75 70/71/76
f 59/58/64 60/66/72 69/72/77 68/73/78
f 62/64/70 63/67/69 72/74/74 71/70/75
f 60/66/72 61/65/71 70/71/76 69/72/77
f 58/59/65 59/58/64 68/73/78 67/75/79
f 56/61/67 57/60/66 66/76/80 65/77/81
f 71/70/75 72/74/74 81/78/82 80/79/83
f 69/72/77 70/71/76 79/80/84 78/81/85
f 67/75/79 68/73/78 77/82/86 76/83/87
f 65/77/81 66/76/80 75/84/88 74/85/89
f 72/86/74 73/87/73 82/88/90 81/89/82
f 70/71/76 71/70/75 80/79/83 79/80/84
f 68/73/78 69/72/77 78/81/85 77/82/86
f 80/79/83 81/78/82 90/90/91 89/91/92
f 78/81/85 79/80/84 88/92/93 87/93/94
f 76/83/87 77/82/86 86/94/95 85/95/96
f 74/85/89 75/84/88 84/96/97 83/97/98
f 81/89/82 82/88/90 91/98/99 90/99/91
f 79/80/84 80/79/83 89/91/92 88/92/93
f 77/82/86 78/81/85 87/93/94 86/94/95
f 75/84/88 76/83/87 85/95/96 84/96/97
f 85/95/96 86/94/95 14/13/24 13/12/23
f 83/97/98 84/96/97 12/17/28 11/16/27
f 90/99/91 91/98/99 19/21/32 18/20/31
f 88/92/93 89/91/92 17/24/35 16/9/20
f 86/94/95 87/93/94 15/8/19 14/13/24
f 84/96/97 85/95/96 13/12/23 12/17/28
f 89/91/92 90/90/91 18/26/31 17/24/35
f 87/93/94 88/92/93 16/9/20 15/8/19
f 101/1/3 110/1/100 111/100/101 102/2/11
f 99/1/10 108/1/102 109/1/103 100/1/2
f 97/1/6 106/1/104 107/1/105 98/1/7
f 100/1/2 109/1/103 110/1/100 101/1/3
f 98/1/7 107/1/105 108/1/102 99/1/10
f 96/1/18 105/1/106 106/1/104 97/1/6
f 94/5/14 103/101/107 104/102/108 95/6/15
f 106/1/104 115/1/109 116/1/110 107/1/105
f 109/1/103 118/1/111 119/1/112 110/1/100
f 107/1/105 116/1/110 117/1/113 108/1/102
f 105/1/106 114/1/114 115/1/109 106/1/104
f 103/101/107 112/103/115 113/104/116 104/102/108
f 110/1/100 119/1/112 120/105/117 111/100/101
f 108/1/102 117/1/113 118/1/111 109/1/103
f 118/1/111 127/1/118 128/1/119 119/1/112
f 116/1/110 125/1/120 126/1/121 117/1/113
f 114/1/114 123/1/122 124/1/123 115/1/109
f 112/103/115 121/106/124 122/107/125 113/104/116
f 119/1/112 128/1/119 129/108/126 120/105/117
f 117/1/113 126/1/121 127/1/118 118/1/111
f 115/1/109 124/1/123 125/1/120 116/1/110
f 123/1/122 132/1/127 133/1/128 124/1/123
f 121/106/124 130/109/129 131/110/130 122/107/125
f 128/1/119 137/1/131 138/111/132 129/108/126
f 126/1/121 135/1/133 136/1/134 127/1/118
f 124/1/123 133/1/128 134/1/135 125/1/120
f 127/1/118 136/1/134 137/1/131 128/1/119
f 125/1/120 134/1/135 135/1/133 126/1/121
f 137/1/131 146/1/136 147/112/137 138/111/132
f 135/1/133 144/1/138 145/1/139 136/1/134
f 133/1/128 142/1/140 143/1/141 134/1/135
f 136/1/134 145/1/139 146/1/136 137/1/131
f 134/1/135 143/1/141 144/1/138 135/1/133
f 132/1/127 141/1/142 142/1/140 133/1/128
f 130/109/129 139/113/143 140/114/144 131/110/130
f 145/1/139 154/1/145 155/1/146 146/1/136
f 143/1/141 152/1/147 153/1/148 144/1/138
f 141/1/142 150/1/149 151/1/150 142/1/140
f 139/113/143 148/115/151 149/116/152 140/114/144
f 146/1/136 155/1/146 156/117/153 147/112/137
f 144/1/138 153/1/148 154/1/145 145/1/139
f 142/1/140 151/1/150 152/1/147 143/1/141
f 154/1/145 163/1/154 164/1/155 155/1/146
f 152/1/147 161/1/156 162/1/157 153/1/148
f 150/1/149 159/1/158 160/1/159 151/1/150
f 148/115/151 157/118/160 158/119/161 149/116/152
f 155/1/146 164/1/155 165/120/162 156/117/153
f 153/1/148 162/1/157 163/1/154 154/1/145
f 151/1/150 160/1/159 161/1/156 152/1/147
f 159/1/158 6/1/17 5/1/5 160/1/159
f 157/118/160 8/4/13 7/7/16 158/119/161
f 164/1/155 92/1/4 93/3/12 165/120/162
f 162/1/157 3/1/9 2/1/1 163/1/154
f 160/1/159 5/1/5 4/1/8 161/1/156
f 163/1/154 2/1/1 92/1/4 164/1/155
f 161/1/156 4/1/8 3/1/9 162/1/157
f 37/121/37 28/2/33 102/2/11 111/100/101
f 28/2/33 19/3/32 93/3/12 102/2/11
f 19/3/32 91/120/99 165/120/162 93/3/12
f 91/120/99 82/122/90 156/117/153 165/120/162
f 82/122/90 73/123/73 147/112/137 156/117/153
f 73/123/73 64/111/68 138/111/132 147/112/137
f 64/111/68 55/124/63 129/108/126 138/111/132
f 55/124/63 46/105/54 120/105/117 129/108/126
f 46/105/54 37/121/37 111/100/101 120/105/117
f 94/5/14 8/4/13 157/118/160 148/115/151 139/113/143 130/109/129 121/106/124 112/103/115 103/101/107
f 20/19/30 29/37/45 38/45/53 47/55/62 56/61/67 65/77/81 74/85/89 83/97/98 11/16/27
usemtl Material_Untitled.png
f 48/125/61 49/126/60 58/127/65 57/128/66
f 57/128/66 58/127/65 67/129/79 66/130/80
f 66/130/80 67/129/79 76/131/87 75/132/88
usemtl Material_NONE
f 7/133/16 95/134/15 96/135/18 6/136/17
f 95/133/15 104/134/108 105/135/106 96/136/18
f 104/133/108 113/134/116 114/135/114 105/136/106
f 113/133/116 122/134/125 123/135/122 114/136/114
f 122/133/125 131/134/130 132/135/127 123/136/122
f 131/133/130 140/134/144 141/135/142 132/136/127
f 140/133/144 149/134/152 150/135/149 141/136/142
f 149/133/152 158/134/161 159/135/158 150/136/149
f 158/133/161 7/134/16 6/135/17 159/136/158
l 1 83
l 10 157
l 165 9
