# Blender v2.76 (sub 0) OBJ File: ''
# www.blender.org
mtllib kieliszek.mtl
o Plane_Plane.001
v 0.041398 0.078851 -0.076668
v 0.069519 0.078851 -0.071764
v 0.038764 0.479977 -0.447847
v 0.038056 0.021634 -0.539097
v 0.213908 0.021634 -0.504376
v 0.183423 0.479977 -0.419284
v 0.038129 2.138738 -0.448270
v 0.196405 2.138738 -0.419495
v 0.180691 0.421718 -0.375096
v 0.038129 2.101060 -0.583788
v 0.244062 2.101060 -0.545862
v 0.093969 0.078851 -0.057033
v 0.366589 0.021634 -0.401470
v 0.309019 0.479977 -0.334633
v 0.422753 2.101060 -0.434079
v 0.333875 2.138739 -0.333930
v 0.305222 0.421718 -0.300067
v 0.111447 0.078851 -0.034464
v 0.475477 0.021634 -0.244278
v 0.398592 0.479977 -0.205325
v 0.550066 2.101060 -0.263537
v 0.431971 2.138739 -0.203131
v 0.394239 0.421718 -0.185120
v 0.119592 0.078851 -0.007106
v 0.525866 0.021634 -0.054029
v 0.440042 0.479977 -0.048824
v 0.608808 2.101060 -0.057266
v 0.477446 2.138739 -0.044762
v 0.435721 0.421718 -0.045778
v 0.117303 0.078851 0.021347
v 0.510952 0.021634 0.143582
v 0.427773 0.479977 0.113734
v 0.591047 2.101060 0.156873
v 0.464157 2.138739 0.119786
v 0.424067 0.421718 0.099140
v 0.363442 0.479977 0.260394
v 0.499179 2.101060 0.349960
v 0.432748 0.021635 0.321868
v 0.393900 2.138739 0.268292
v 0.360848 0.421718 0.230062
v 0.104891 0.078851 0.047053
v 0.301816 0.021635 0.456749
v 0.255736 0.479977 0.371349
v 0.276163 2.138739 0.380699
v 0.254605 0.421718 0.329306
v 0.345613 2.101060 0.495919
v 0.084031 0.078851 0.066538
v 0.135839 0.021635 0.530009
v 0.119202 0.479977 0.431613
v 0.126847 2.138739 0.441825
v 0.119685 0.421718 0.383468
v 0.151089 2.101061 0.575036
v 0.057541 0.078851 0.077172
v -0.042765 0.021635 0.531754
v -0.027721 0.479977 0.433049
v -0.033881 2.138739 0.443416
v -0.025690 0.421718 0.385234
v -0.058122 2.101061 0.576627
v 0.028998 0.078851 0.077519
v -0.209877 0.021635 0.461749
v -0.165188 0.479977 0.375461
v -0.184315 2.138739 0.385255
v -0.161887 0.421718 0.334366
v -0.253765 2.101060 0.500475
v 0.002257 0.078851 0.067532
v -0.304138 2.138739 0.275199
v -0.270510 0.421718 0.237733
v -0.409417 2.101060 0.356867
v -0.019070 0.078851 0.048559
v -0.342927 0.021635 0.329447
v -0.274636 0.479977 0.266628
v -0.504057 2.101060 0.165198
v -0.377168 2.138739 0.128111
v -0.032103 0.078851 0.023163
v -0.423945 0.021634 0.152717
v -0.341283 0.479977 0.121249
v -0.336891 0.421718 0.108386
v -0.035082 0.078851 -0.005227
v -0.441989 0.021634 -0.044572
v -0.356127 0.479977 -0.041044
v -0.524901 2.101060 -0.048648
v -0.393539 2.138739 -0.036144
v -0.352063 0.421718 -0.036206
v -0.027604 0.078851 -0.032775
v -0.394624 0.021634 -0.235776
v -0.317163 0.479977 -0.198330
v -0.469137 2.101060 -0.255788
v -0.351043 2.138739 -0.195382
v -0.313978 0.421718 -0.176515
v 0.042342 0.074491 0.001000
v -0.010680 0.078851 -0.055762
v -0.288244 0.021634 -0.395072
v -0.229655 0.479977 -0.329369
v -0.344295 2.101060 -0.428248
v -0.255418 2.138739 -0.328098
v -0.227779 0.421718 -0.293592
v 0.013405 0.078851 -0.071082
v -0.137219 0.021634 -0.500945
v -0.105420 0.479977 -0.416461
v -0.167235 2.101060 -0.542735
v -0.119579 2.138739 -0.416368
v -0.105109 0.421718 -0.371624
v 0.037466 0.421718 -0.400072
v 0.040037 0.437443 -0.005315
vn 0.009600 -0.195300 0.980700
vn 0.009500 -0.195300 0.980700
vn -0.190100 -0.191400 0.962900
vn 0.002600 -0.963500 0.267900
vn 0.002000 -0.963500 0.267900
vn -0.049100 -0.962200 0.267900
vn -0.001200 0.992400 -0.122900
vn -0.001300 0.992400 -0.122900
vn 0.023900 0.992100 -0.123100
vn 0.008400 0.084400 0.996400
vn 0.008500 0.084400 0.996400
vn -0.185700 0.082700 0.979100
vn 0.071500 0.991600 -0.107700
vn -0.540300 0.087400 0.836900
vn -0.549000 -0.187700 0.814500
vn 0.522400 -0.026200 -0.852300
vn -0.145100 -0.961700 0.232500
vn 0.110500 0.990800 -0.077700
vn -0.806600 0.094400 0.583500
vn -0.808100 -0.183100 0.559800
vn 0.795400 -0.024500 -0.605600
vn -0.221400 -0.961000 0.165600
vn 0.135000 0.990200 -0.036300
vn -0.959100 0.100200 0.264900
vn -0.950700 -0.180900 0.251800
vn 0.959600 -0.023600 -0.280300
vn -0.267800 -0.960400 0.076500
vn 0.140600 0.990000 0.010700
vn -0.991600 0.102400 -0.079100
vn -0.980400 -0.182700 -0.074000
vn 0.996500 -0.024200 0.080300
vn -0.278000 -0.960300 -0.022800
vn -0.904000 0.100400 -0.415600
vn -0.899300 -0.188900 -0.394500
vn 0.902000 -0.026600 0.430900
vn -0.250900 -0.960700 -0.119100
vn 0.126200 0.990400 0.056100
vn -0.703300 -0.197900 -0.682700
vn 0.686500 -0.029900 0.726500
vn -0.189900 -0.961300 -0.199400
vn 0.094600 0.991200 0.093000
vn -0.697900 0.095400 -0.709800
vn -0.395100 -0.206500 -0.895100
vn 0.375700 -0.032700 0.926200
vn -0.103200 -0.962000 -0.252900
vn 0.050900 0.991900 0.116800
vn -0.386400 0.090400 -0.917900
vn -0.009600 -0.210200 -0.977600
vn 0.011000 -0.033900 0.999400
vn -0.002300 -0.962200 -0.272200
vn 0.001300 0.992100 0.125200
vn -0.008500 0.088200 -0.996100
vn 0.378000 -0.206700 -0.902400
vn -0.355300 -0.032800 0.934200
vn 0.098800 -0.962000 -0.254500
vn -0.048500 0.991900 0.117500
vn 0.371100 0.090200 -0.924200
vn -0.670600 -0.030000 0.741200
vn 0.186500 -0.961400 -0.202500
vn -0.092600 0.991200 0.094500
vn 0.686500 0.095200 -0.720900
vn 0.691100 -0.198200 -0.695000
vn 0.248800 -0.960700 -0.123200
vn -0.125000 0.990400 0.058200
vn 0.897500 0.100100 -0.429500
vn 0.892600 -0.189100 -0.409200
vn -0.892600 -0.026700 0.450100
vn -0.140400 0.990000 0.013100
vn 0.990300 0.102300 -0.094000
vn 0.979100 -0.182700 -0.089500
vn -0.994500 -0.024300 0.101600
vn 0.277600 -0.960300 -0.027300
vn -0.135700 0.990200 -0.034000
vn 0.963000 0.100300 0.250300
vn 0.954700 -0.180700 0.236500
vn -0.965400 -0.023500 -0.259700
vn 0.269000 -0.960400 0.072200
vn -0.112100 0.990800 -0.075800
vn 0.815700 0.094600 0.570700
vn 0.817600 -0.182800 0.546000
vn -0.808300 -0.024400 -0.588300
vn 0.224200 -0.961000 0.162000
vn -0.073700 0.991600 -0.106500
vn 0.553900 0.087600 0.827900
vn 0.563900 -0.187400 0.804300
vn -0.540800 -0.026000 -0.840700
vn 0.149100 -0.961700 0.230100
vn -0.000000 -1.000000 -0.000000
vn -0.008100 -0.678400 -0.734700
vn 0.085700 -0.872700 -0.480600
vn 0.000700 0.998400 0.056000
vn -0.009800 0.998400 0.056200
vn -0.010900 -0.027800 -0.999600
vn 0.175400 -0.027400 -0.984100
vn -0.029400 0.998400 0.048800
vn -0.045100 0.998400 0.034900
vn -0.054600 0.998400 0.016300
vn -0.056800 0.998400 -0.004600
vn -0.051300 0.998400 -0.024800
vn -0.038900 0.998400 -0.041700
vn -0.021200 0.998400 -0.052900
vn -0.000700 0.998400 -0.057000
vn 0.019900 0.998400 -0.053400
vn 0.037900 0.998400 -0.042600
vn 0.050700 0.998400 -0.026000
vn 0.056700 0.998400 -0.005900
vn 0.055000 0.998400 0.014900
vn 0.045900 0.998400 0.033800
vn 0.030600 0.998400 0.048100
vn 0.202200 0.082800 0.975800
vn 0.208800 -0.191300 0.959100
vn -0.197000 -0.027300 -0.980000
vn 0.053700 -0.962200 0.267100
vn 0.011200 0.998400 0.055900
vn -0.026400 0.992100 -0.122700
usemtl None
s 1
f 3//1 4//2 5//3 6//3
f 7//4 10//5 11//6 8//6
f 4//7 1//8 2//9 5//9
f 10//10 3//11 6//12 11//12
f 5//13 2//13 12//13 13//13
f 11//14 6//14 14//14 15//14
f 6//15 5//15 13//15 14//15
f 9//16 8//16 16//16 17//16
f 8//17 11//17 15//17 16//17
f 13//18 12//18 18//18 19//18
f 15//19 14//19 20//19 21//19
f 14//20 13//20 19//20 20//20
f 17//21 16//21 22//21 23//21
f 16//22 15//22 21//22 22//22
f 19//23 18//23 24//23 25//23
f 21//24 20//24 26//24 27//24
f 20//25 19//25 25//25 26//25
f 23//26 22//26 28//26 29//26
f 22//27 21//27 27//27 28//27
f 25//28 24//28 30//28 31//28
f 27//29 26//29 32//29 33//29
f 26//30 25//30 31//30 32//30
f 29//31 28//31 34//31 35//31
f 28//32 27//32 33//32 34//32
f 33//33 32//33 36//33 37//33
f 32//34 31//34 38//34 36//34
f 35//35 34//35 39//35 40//35
f 34//36 33//36 37//36 39//36
f 31//37 30//37 41//37 38//37
f 36//38 38//38 42//38 43//38
f 40//39 39//39 44//39 45//39
f 39//40 37//40 46//40 44//40
f 38//41 41//41 47//41 42//41
f 37//42 36//42 43//42 46//42
f 43//43 42//43 48//43 49//43
f 45//44 44//44 50//44 51//44
f 44//45 46//45 52//45 50//45
f 42//46 47//46 53//46 48//46
f 46//47 43//47 49//47 52//47
f 49//48 48//48 54//48 55//48
f 51//49 50//49 56//49 57//49
f 50//50 52//50 58//50 56//50
f 48//51 53//51 59//51 54//51
f 52//52 49//52 55//52 58//52
f 55//53 54//53 60//53 61//53
f 57//54 56//54 62//54 63//54
f 56//55 58//55 64//55 62//55
f 54//56 59//56 65//56 60//56
f 58//57 55//57 61//57 64//57
f 63//58 62//58 66//58 67//58
f 62//59 64//59 68//59 66//59
f 60//60 65//60 69//60 70//60
f 64//61 61//61 71//61 68//61
f 61//62 60//62 70//62 71//62
f 66//63 68//63 72//63 73//63
f 70//64 69//64 74//64 75//64
f 68//65 71//65 76//65 72//65
f 71//66 70//66 75//66 76//66
f 67//67 66//67 73//67 77//67
f 75//68 74//68 78//68 79//68
f 72//69 76//69 80//69 81//69
f 76//70 75//70 79//70 80//70
f 77//71 73//71 82//71 83//71
f 73//72 72//72 81//72 82//72
f 79//73 78//73 84//73 85//73
f 81//74 80//74 86//74 87//74
f 80//75 79//75 85//75 86//75
f 83//76 82//76 88//76 89//76
f 82//77 81//77 87//77 88//77
f 85//78 84//78 91//78 92//78
f 87//79 86//79 93//79 94//79
f 86//80 85//80 92//80 93//80
f 89//81 88//81 95//81 96//81
f 88//82 87//82 94//82 95//82
f 92//83 91//83 97//83 98//83
f 94//84 93//84 99//84 100//84
f 93//85 92//85 98//85 99//85
f 96//86 95//86 101//86 102//86
f 95//87 94//87 100//87 101//87
f 17//88 23//88 29//88 35//88 40//88 45//88 51//88 57//88 63//88 67//88 77//88 83//88 89//88 96//88 102//88 103//89 9//90
f 1//91 90//91 2//92
f 103//89 7//93 8//94 9//90
f 2//95 90//95 12//95
f 12//96 90//96 18//96
f 18//97 90//97 24//97
f 24//98 90//98 30//98
f 30//99 90//99 41//99
f 41//100 90//100 47//100
f 47//101 90//101 53//101
f 53//102 90//102 59//102
f 59//103 90//103 65//103
f 65//104 90//104 69//104
f 69//105 90//105 74//105
f 74//106 90//106 78//106
f 78//107 90//107 84//107
f 84//108 90//108 91//108
f 91//109 90//109 97//109
f 100//110 99//110 3//11 10//10
f 99//111 98//111 4//2 3//1
f 102//112 101//112 7//93 103//89
f 101//113 100//113 10//5 7//4
f 97//114 90//91 1//91
f 98//115 97//115 1//8 4//7
l 90 104
l 104 103
