# Blender v2.76 (sub 0) OBJ File: 'untitled.blend'
# www.blender.org
mtllib untitled.mtl
o Plane_Plane.001
v 1.696876 2.166429 -0.788416
v 1.697843 0.545346 -0.550560
v 1.696876 2.204107 -0.605477
v 1.697843 0.487087 -0.400072
v 1.696876 0.087003 -0.662821
v 1.696876 0.112122 -0.479882
v 1.700413 0.502812 -0.005315
v 1.702718 0.139860 0.001000
v 1.982440 2.166429 -0.737219
v 1.895430 0.545346 -0.515421
v 1.916355 2.204107 -0.566634
v 1.841067 0.487087 -0.375096
v 1.937070 0.087003 -0.620105
v 1.870985 0.112122 -0.449520
v 1.702718 0.139860 0.001000
v 2.230227 2.166429 -0.586321
v 2.066980 0.545346 -0.411279
v 2.106982 2.204108 -0.451128
v 1.965598 0.487087 -0.300067
v 2.145614 0.087003 -0.493505
v 2.022369 0.112122 -0.358312
v 1.702718 0.139860 0.001000
v 2.406770 2.166429 -0.356103
v 2.189326 0.545346 -0.252198
v 2.243010 2.204108 -0.274560
v 2.054615 0.487087 -0.185120
v 2.294342 0.087003 -0.300120
v 2.130582 0.112122 -0.218577
v 1.702718 0.139860 0.001000
v 2.488227 2.166429 -0.077655
v 2.245943 0.545346 -0.059663
v 2.306069 2.204108 -0.060776
v 2.096097 0.487087 -0.045778
v 2.363168 0.087003 -0.066067
v 2.181010 0.112122 -0.049187
v 1.702718 0.139860 0.001000
v 2.463597 2.166429 0.211415
v 2.229185 0.545346 0.140323
v 2.287642 2.204108 0.161351
v 2.084443 0.487087 0.099140
v 2.342797 0.087003 0.177044
v 2.166842 0.112122 0.126981
v 1.702718 0.139860 0.001000
v 2.336206 2.166429 0.472067
v 2.141316 0.545346 0.320751
v 2.190218 2.204108 0.361822
v 2.021224 0.487087 0.230062
v 2.235979 0.087004 0.396379
v 2.089991 0.112122 0.286134
v 1.702718 0.139860 0.001000
v 2.123259 2.166429 0.669099
v 1.994202 0.545346 0.457253
v 2.026954 2.204108 0.513562
v 1.914981 0.487087 0.329306
v 2.057142 0.087004 0.562316
v 1.960837 0.112122 0.406779
v 1.702718 0.139860 0.001000
v 1.853515 2.166430 0.775901
v 1.807712 0.545346 0.531393
v 1.819900 2.204108 0.596077
v 1.780061 0.487087 0.383468
v 1.830437 0.087004 0.652444
v 1.796822 0.112122 0.472621
v 1.702718 0.139860 0.001000
v 1.563406 2.166430 0.778048
v 1.607033 0.545346 0.533159
v 1.597021 2.204108 0.598224
v 1.634686 0.487087 0.385234
v 1.586484 0.087004 0.654591
v 1.620099 0.112122 0.474768
v 1.702718 0.139860 0.001000
v 1.292111 2.166429 0.675250
v 1.419268 0.545346 0.462312
v 1.388416 2.204108 0.519712
v 1.498489 0.487087 0.334366
v 1.358228 0.087004 0.568467
v 1.454533 0.112122 0.412930
v 1.702718 0.139860 0.001000
v 1.076271 2.166429 0.481391
v 1.269775 0.545346 0.328421
v 1.222260 2.204108 0.371146
v 1.389866 0.487087 0.237733
v 1.176498 0.087004 0.405703
v 1.322486 0.112122 0.295459
v 1.702718 0.139860 0.001000
v 0.945036 2.166429 0.222653
v 1.178743 0.545346 0.149568
v 1.120991 2.204108 0.172589
v 1.323485 0.487087 0.108386
v 1.065837 0.087003 0.188282
v 1.241791 0.112122 0.138219
v 1.702718 0.139860 0.001000
v 0.916131 2.166429 -0.066021
v 1.158468 0.545346 -0.050092
v 1.098289 2.204108 -0.049142
v 1.308313 0.487087 -0.036206
v 1.041190 0.087003 -0.054433
v 1.223347 0.112122 -0.037553
v 1.702718 0.139860 0.001000
v 0.993458 2.166429 -0.345643
v 1.211688 0.545346 -0.243593
v 1.157218 2.204108 -0.264100
v 1.346398 0.487087 -0.176515
v 1.105886 0.087003 -0.289661
v 1.269645 0.112122 -0.208118
v 1.702718 0.139860 0.001000
v 1.166575 2.166429 -0.578450
v 1.331214 0.545346 -0.404803
v 1.289819 2.204108 -0.443256
v 1.432597 0.487087 -0.293592
v 1.251188 0.087003 -0.485634
v 1.374432 0.112122 -0.350441
v 1.702718 0.139860 0.001000
v 1.412101 2.166429 -0.732998
v 1.500905 0.545346 -0.511948
v 1.478185 2.204108 -0.562413
v 1.555267 0.487087 -0.371624
v 1.457471 0.087003 -0.615884
v 1.523555 0.112122 -0.445299
v 1.702718 0.139860 0.001000
v 1.696876 2.166429 -0.788416
v 1.697843 0.545346 -0.550559
v 1.696876 2.204108 -0.605477
v 1.697842 0.487087 -0.400072
v 1.696876 0.087003 -0.662821
v 1.696876 0.112123 -0.479883
v 1.702718 0.139860 0.001000
vn 0.010100 0.998300 -0.057700
vn -0.170200 -0.234100 0.957200
vn 0.172100 -0.116800 -0.978100
vn -0.036000 -0.978700 0.201900
vn 0.024000 0.990400 -0.136200
vn -0.174100 0.142800 0.974300
vn 0.030200 0.998300 -0.050200
vn 0.071600 0.990400 -0.118400
vn -0.514300 0.143200 0.845600
vn -0.504300 -0.235600 0.830800
vn 0.513800 -0.117200 -0.849900
vn -0.106500 -0.978700 0.175300
vn 0.046300 0.998300 -0.035900
vn 0.109500 0.990400 -0.084500
vn -0.784900 0.144000 0.602600
vn -0.769800 -0.238300 0.592100
vn 0.786000 -0.118000 -0.606800
vn -0.162600 -0.978700 0.125000
vn 0.056100 0.998300 -0.016700
vn 0.132700 0.990400 -0.039200
vn -0.949500 0.145100 0.278300
vn -0.930900 -0.241900 0.273700
vn 0.952000 -0.119000 -0.281800
vn -0.196800 -0.978700 0.057800
vn 0.137900 0.990400 0.011400
vn -0.985700 0.146300 -0.083400
vn -0.965900 -0.245900 -0.080900
vn 0.989400 -0.120200 0.081100
vn -0.204400 -0.978700 -0.017200
vn 0.058400 0.998300 0.004700
vn -0.888900 0.147500 -0.433800
vn -0.870600 -0.249800 -0.424000
vn 0.893200 -0.121300 0.433000
vn -0.184300 -0.978700 -0.089900
vn 0.052700 0.998300 0.025500
vn 0.124500 0.990400 0.060400
vn -0.658100 -0.252900 -0.709200
vn 0.676400 -0.122200 0.726300
vn -0.139400 -0.978700 -0.150400
vn 0.040000 0.998300 0.042800
vn 0.094200 0.990400 0.101300
vn -0.672000 0.148400 -0.725500
vn -0.357200 -0.255000 -0.898500
vn 0.368300 -0.122800 0.921600
vn -0.075700 -0.978700 -0.190600
vn 0.021800 0.998300 0.054400
vn 0.051300 0.990400 0.128500
vn -0.364500 0.149000 -0.919200
vn -0.008500 -0.255700 -0.966700
vn 0.010500 -0.123000 0.992400
vn -0.001700 -0.978700 -0.205100
vn 0.000700 0.998300 0.058600
vn 0.001400 0.990400 0.138300
vn -0.007900 0.149300 -0.988800
vn 0.341400 -0.255000 -0.904700
vn -0.348700 -0.122800 0.929200
vn 0.072500 -0.978700 -0.191800
vn -0.020500 0.998300 0.054900
vn -0.048700 0.990400 0.129500
vn 0.349800 0.149000 -0.924900
vn -0.660800 -0.122200 0.740500
vn 0.136900 -0.978700 -0.152700
vn -0.038900 0.998300 0.043800
vn -0.092200 0.990400 0.103200
vn 0.660400 0.148400 -0.736100
vn 0.645500 -0.252900 -0.720700
vn 0.182800 -0.978700 -0.092900
vn -0.052100 0.998300 0.026700
vn -0.123200 0.990400 0.062900
vn 0.881800 0.147400 -0.447900
vn 0.863000 -0.249700 -0.439200
vn -0.883800 -0.121300 0.451900
vn -0.058300 0.998300 0.006100
vn -0.137600 0.990400 0.014200
vn 0.984300 0.146300 -0.099100
vn 0.964400 -0.245800 -0.097900
vn -0.987500 -0.120100 0.102100
vn 0.204000 -0.978700 -0.020600
vn -0.056500 0.998300 -0.015300
vn -0.133400 0.990400 -0.036500
vn 0.953800 0.145100 0.263200
vn 0.935600 -0.241800 0.257300
vn -0.957800 -0.119000 -0.261600
vn 0.197700 -0.978700 0.054500
vn -0.047200 0.998300 -0.034700
vn -0.111300 0.990400 -0.082200
vn 0.794400 0.144000 0.590000
vn 0.780200 -0.238200 0.578400
vn -0.798800 -0.118000 -0.590000
vn 0.164700 -0.978700 0.122200
vn -0.074000 0.990400 -0.116900
vn 0.527700 0.143200 0.837300
vn 0.518900 -0.235500 0.821800
vn -0.531700 -0.117200 -0.838800
vn 0.109400 -0.978700 0.173500
vn -0.031400 0.998300 -0.049400
vn 0.189600 0.142700 0.971400
vn 0.187000 -0.234100 0.954100
vn -0.192900 -0.116800 -0.974300
vn 0.039400 -0.978700 0.201300
vn -0.011500 0.998300 -0.057400
vn -0.026800 0.990400 -0.135700
vn -0.000000 -1.000000 0.000000
usemtl None
s off
f 6//1 8//1 15//1 14//1
f 2//2 5//2 13//2 10//2
f 4//3 3//3 11//3 12//3
f 3//4 1//4 9//4 11//4
f 5//5 6//5 14//5 13//5
f 1//6 2//6 10//6 9//6
f 14//7 15//7 22//7 21//7
f 13//8 14//8 21//8 20//8
f 9//9 10//9 17//9 16//9
f 10//10 13//10 20//10 17//10
f 12//11 11//11 18//11 19//11
f 11//12 9//12 16//12 18//12
f 21//13 22//13 29//13 28//13
f 20//14 21//14 28//14 27//14
f 16//15 17//15 24//15 23//15
f 17//16 20//16 27//16 24//16
f 19//17 18//17 25//17 26//17
f 18//18 16//18 23//18 25//18
f 28//19 29//19 36//19 35//19
f 27//20 28//20 35//20 34//20
f 23//21 24//21 31//21 30//21
f 24//22 27//22 34//22 31//22
f 26//23 25//23 32//23 33//23
f 25//24 23//24 30//24 32//24
f 34//25 35//25 42//25 41//25
f 30//26 31//26 38//26 37//26
f 31//27 34//27 41//27 38//27
f 33//28 32//28 39//28 40//28
f 32//29 30//29 37//29 39//29
f 35//30 36//30 43//30 42//30
f 37//31 38//31 45//31 44//31
f 38//32 41//32 48//32 45//32
f 40//33 39//33 46//33 47//33
f 39//34 37//34 44//34 46//34
f 42//35 43//35 50//35 49//35
f 41//36 42//36 49//36 48//36
f 45//37 48//37 55//37 52//37
f 47//38 46//38 53//38 54//38
f 46//39 44//39 51//39 53//39
f 49//40 50//40 57//40 56//40
f 48//41 49//41 56//41 55//41
f 44//42 45//42 52//42 51//42
f 52//43 55//43 62//43 59//43
f 54//44 53//44 60//44 61//44
f 53//45 51//45 58//45 60//45
f 56//46 57//46 64//46 63//46
f 55//47 56//47 63//47 62//47
f 51//48 52//48 59//48 58//48
f 59//49 62//49 69//49 66//49
f 61//50 60//50 67//50 68//50
f 60//51 58//51 65//51 67//51
f 63//52 64//52 71//52 70//52
f 62//53 63//53 70//53 69//53
f 58//54 59//54 66//54 65//54
f 66//55 69//55 76//55 73//55
f 68//56 67//56 74//56 75//56
f 67//57 65//57 72//57 74//57
f 70//58 71//58 78//58 77//58
f 69//59 70//59 77//59 76//59
f 65//60 66//60 73//60 72//60
f 75//61 74//61 81//61 82//61
f 74//62 72//62 79//62 81//62
f 77//63 78//63 85//63 84//63
f 76//64 77//64 84//64 83//64
f 72//65 73//65 80//65 79//65
f 73//66 76//66 83//66 80//66
f 81//67 79//67 86//67 88//67
f 84//68 85//68 92//68 91//68
f 83//69 84//69 91//69 90//69
f 79//70 80//70 87//70 86//70
f 80//71 83//71 90//71 87//71
f 82//72 81//72 88//72 89//72
f 91//73 92//73 99//73 98//73
f 90//74 91//74 98//74 97//74
f 86//75 87//75 94//75 93//75
f 87//76 90//76 97//76 94//76
f 89//77 88//77 95//77 96//77
f 88//78 86//78 93//78 95//78
f 98//79 99//79 106//79 105//79
f 97//80 98//80 105//80 104//80
f 93//81 94//81 101//81 100//81
f 94//82 97//82 104//82 101//82
f 96//83 95//83 102//83 103//83
f 95//84 93//84 100//84 102//84
f 105//85 106//85 113//85 112//85
f 104//86 105//86 112//86 111//86
f 100//87 101//87 108//87 107//87
f 101//88 104//88 111//88 108//88
f 103//89 102//89 109//89 110//89
f 102//90 100//90 107//90 109//90
f 111//91 112//91 119//91 118//91
f 107//92 108//92 115//92 114//92
f 108//93 111//93 118//93 115//93
f 110//94 109//94 116//94 117//94
f 109//95 107//95 114//95 116//95
f 112//96 113//96 120//96 119//96
f 114//97 115//97 122//97 121//97
f 115//98 118//98 125//98 122//98
f 117//99 116//99 123//99 124//99
f 116//100 114//100 121//100 123//100
f 119//101 120//101 127//101 126//101
f 118//102 119//102 126//102 125//102
f 19//103 26//103 33//103 40//103 47//103 54//103 61//103 68//103 75//103 82//103 89//103 96//103 103//103 110//103 117//103 124//103 12//103
l 8 7
l 7 4
